<?xml version="1.0"?>
<svg width="502.648" height="502.648" xmlns="http://www.w3.org/2000/svg">

 <g>
  <title>background</title>
  <rect fill="none" id="canvas_background" height="402" width="582" y="-1" x="-1"/>
 </g>
 <g>
  <title>Layer 1</title>
  <g id="svg_1">
   <g id="svg_2">
    <g id="svg_3">
     <circle id="svg_4" fill="#70c1b3" r="58.694" cy="91.549" cx="250.399"/>
     <path id="svg_5" fill="#70c1b3" d="m455.860992,253.028l-54.703003,-11.410995c-18.636993,-3.904007 -37.036987,4.638 -46.764984,19.824005c-9.447998,-4.852997 -19.608002,-9.03801 -30.415009,-12.511017l0,-32.528992c0.022003,-24.612 -20.126007,-44.738007 -44.651001,-44.738007l-55.932999,0c-24.654999,0 -44.716003,20.126007 -44.716003,44.738007l0,32.701004c-10.699005,3.40799 -20.751007,7.593002 -30.263992,12.468002c-9.728012,-15.251007 -28.150009,-23.85701 -46.809006,-19.953003l-54.747002,11.410995c-24.030001,5.026016 -39.625999,28.862015 -34.599998,52.978012l13.741001,65.639984c4.983,24.050995 28.84,39.647003 52.891994,34.621002l17.320999,-3.623993c8.671005,12.812988 20.665001,24.569 36.022995,34.621002c31.989014,20.96698 74.247009,32.528992 119.09201,32.528992c68.617004,0 127.721008,-27.588989 154.942993,-67.214996l17.60199,3.688995c24.029999,5.003998 47.887024,-10.570007 52.869995,-34.621002l13.762024,-65.639984c5.003998,-24.115997 -10.59201,-47.952026 -34.643005,-52.978012zm-204.556,194.353012c-40.509995,0 -78.475006,-10.203003 -106.796997,-28.862c-9.707001,-6.34201 -17.752998,-13.394989 -24.201996,-20.945007l13.265991,-2.78299c24.072998,-5.003998 39.669006,-28.839996 34.643005,-52.912994l-12.317001,-59.018005c7.182999,-3.860992 14.733002,-7.248016 22.757004,-10.138l0,10.764008c0,24.569 20.104004,44.694977 44.716003,44.694977l55.932983,0c24.548004,0 44.652008,-20.146973 44.652008,-44.694977l0,-11.325012c8.174988,2.912018 15.854004,6.256012 22.972992,10.052002l-12.48999,59.686981c-4.983002,24.072998 10.591003,47.908997 34.664001,52.912994l13.394989,2.804016c-24.977997,29.574005 -74.396973,49.764008 -131.192993,49.764008z"/>
     <circle id="svg_6" fill="#70c1b3" r="58.694" cy="168.708" cx="443.954"/>
     <path id="svg_7" fill="#70c1b3" d="m70.736,226.171997c31.751999,-6.643997 52.028999,-37.770004 45.471001,-69.500992c-6.687004,-31.709007 -37.749001,-52.072006 -69.523003,-45.428009c-31.709,6.622002 -52.071998,37.727005 -45.428001,69.457993c6.623003,31.752014 37.728004,52.094009 69.480003,45.471008z"/>
    </g>
   </g>
   <g id="svg_8"/>
   <g id="svg_9"/>
   <g id="svg_10"/>
   <g id="svg_11"/>
   <g id="svg_12"/>
   <g id="svg_13"/>
   <g id="svg_14"/>
   <g id="svg_15"/>
   <g id="svg_16"/>
   <g id="svg_17"/>
   <g id="svg_18"/>
   <g id="svg_19"/>
   <g id="svg_20"/>
   <g id="svg_21"/>
   <g id="svg_22"/>
  </g>
  <g id="svg_23"/>
  <g id="svg_24"/>
  <g id="svg_25"/>
  <g id="svg_26"/>
  <g id="svg_27"/>
  <g id="svg_28"/>
  <g id="svg_29"/>
  <g id="svg_30"/>
  <g id="svg_31"/>
  <g id="svg_32"/>
  <g id="svg_33"/>
  <g id="svg_34"/>
  <g id="svg_35"/>
  <g id="svg_36"/>
  <g id="svg_37"/>
 </g>
</svg>