<?xml version="1.0"?>
<svg width="94.5" height="94.5" xmlns="http://www.w3.org/2000/svg">

 <g>
  <title>background</title>
  <rect fill="none" id="canvas_background" height="402" width="582" y="-1" x="-1"/>
 </g>
 <g>
  <title>Layer 1</title>
  <g id="svg_1">
   <g id="Layer_1_17_">
    <g id="svg_2">
     <g id="svg_3">
      <g id="svg_4">
       <path fill="#70c1b3" id="svg_5" d="m84.762001,41.231998c-4.919998,3.528999 -11.825996,8.222 -14.941002,8.222c-0.616997,0 -0.814995,-0.186001 -0.959,-0.361c-1.271996,-1.568001 -0.928001,-7.065998 1.025002,-16.334999c0.193001,-0.918001 -0.291,-1.841 -1.152,-2.204c-0.861,-0.365 -1.861,-0.066 -2.383003,0.710001c-6.720997,10.021 -9.798996,12.123001 -11.193996,12.123001c-1.979,0 -3.990002,-5.692001 -5.986,-16.920002c-0.159,-0.896 -0.915001,-1.549 -1.813,-1.601l0,-0.011c-0.019001,0 -0.036999,0.004 -0.056,0.004c-0.019001,0 -0.040001,-0.004 -0.057999,-0.004l0,0.011c-0.895,0.052 -1.649002,0.705 -1.811001,1.601c-1.998001,11.228001 -4.011002,16.920002 -5.988003,16.920002c-1.396,0 -4.471996,-2.103001 -11.191998,-12.123001c-0.521,-0.776001 -1.521,-1.075001 -2.384001,-0.710001c-0.862,0.363001 -1.346001,1.285999 -1.152,2.204c1.952002,9.269001 2.299,14.767002 1.024,16.334999c-0.140999,0.175999 -0.341999,0.361 -0.958,0.361c-3.115,0 -10.020999,-4.692001 -14.942998,-8.222c-0.778002,-0.559002 -1.845001,-0.468002 -2.520001,0.209c-0.676,0.674 -0.765,1.741001 -0.207,2.52c11.253,14.392002 9.135,30.909996 9.135,30.909996c-0.041,0.229004 -0.063,0.463005 -0.063,0.709c0,4.058006 5.682001,5.664001 10.630999,6.610001c5.453001,1.045006 12.635,1.627007 20.266001,1.647003l0,0.001999c0.073002,0 0.146999,0 0.220001,-0.001999c0.072998,0.001999 0.146,0.001999 0.221001,0.001999l0,-0.001999c7.628998,-0.021004 14.812,-0.602997 20.263,-1.647003c4.949997,-0.945999 10.633003,-2.555 10.633003,-6.610001c0,-0.245995 -0.022003,-0.478996 -0.063004,-0.709c0,0 -2.116997,-16.520996 9.134003,-30.909996c0.558998,-0.778 0.471001,-1.846001 -0.205002,-2.52c-0.679001,-0.674999 -1.744003,-0.766998 -2.524002,-0.209zm-37.240002,37.006001l-0.014999,0c-0.07,0 -0.137001,0.002998 -0.206001,0.002998c-0.07,0 -0.134998,-0.002998 -0.204998,-0.002998l-0.015003,0c-12.126999,-0.035004 -20.143997,-1.445999 -23.681997,-2.656998c3.538,-1.213005 11.554998,-2.624001 23.681997,-2.658005l0.029003,0c0.063,0 0.125999,0 0.189999,0s0.124001,0 0.189999,0l0.030003,0c12.125999,0.034004 20.142002,1.445 23.680996,2.658005c-3.536995,1.210999 -11.552998,2.622002 -23.678997,2.656998z"/>
      </g>
     </g>
     <g id="svg_6">
      <g id="svg_7">
       <circle fill="#70c1b3" id="svg_8" r="5.914" cy="16.573" cx="47.302"/>
      </g>
     </g>
     <g id="svg_9">
      <g id="svg_10">
       <circle fill="#70c1b3" id="svg_11" r="4.928" cy="23.718" cx="22.339"/>
      </g>
     </g>
     <g id="svg_12">
      <g id="svg_13">
       <circle fill="#70c1b3" id="svg_14" r="4.928" cy="23.718" cx="71.855"/>
      </g>
     </g>
     <g id="svg_15">
      <g id="svg_16">
       <circle fill="#70c1b3" id="svg_17" r="3.322" cy="37.759" cx="3.322"/>
      </g>
     </g>
     <g id="svg_18">
      <g id="svg_19">
       <circle fill="#70c1b3" id="svg_20" r="3.322" cy="37.759" cx="91.178"/>
      </g>
     </g>
    </g>
   </g>
  </g>
  <g id="svg_21"/>
  <g id="svg_22"/>
  <g id="svg_23"/>
  <g id="svg_24"/>
  <g id="svg_25"/>
  <g id="svg_26"/>
  <g id="svg_27"/>
  <g id="svg_28"/>
  <g id="svg_29"/>
  <g id="svg_30"/>
  <g id="svg_31"/>
  <g id="svg_32"/>
  <g id="svg_33"/>
  <g id="svg_34"/>
  <g id="svg_35"/>
 </g>
</svg>