<?xml version="1.0"?>
<svg width="95.333" height="95.333" xmlns="http://www.w3.org/2000/svg">

 <g>
  <title>background</title>
  <rect fill="none" id="canvas_background" height="402" width="582" y="-1" x="-1"/>
 </g>
 <g>
  <title>Layer 1</title>
  <g id="svg_1">
   <path fill="#ffffff" id="svg_2" d="m93.333,0l-91.333,0c-1.104,0 -2,0.896 -2,2l0,91.332001c0,1.103996 0.896,2 2,2l48.525002,0l0,-31.855l-10.241001,0c-0.885002,0 -1.602001,-0.717003 -1.602001,-1.602001l0,-12.914001c0,-0.884998 0.716999,-1.602997 1.602001,-1.602997l10.242001,0l0,-8.913002c0,-11.743999 7.395,-19.331999 18.838997,-19.331999l10.188004,0.015999c0.882996,0.000999 1.599998,0.718 1.599998,1.602001l0,11.990999c0,0.884998 -0.717003,1.602001 -1.601997,1.602001l-6.862999,0.002998c-4.729004,0 -5.595001,1.844002 -5.595001,5.474998l0,7.556004l11.978996,0c0.425003,0 0.832001,0.168999 1.133003,0.469997c0.299995,0.301003 0.469002,0.708 0.469002,1.132999l-0.004005,12.915001c0,0.885002 -0.716995,1.603001 -1.601997,1.603001l-11.975998,0l0,31.854l26.239998,0c1.103996,0 2,-0.896004 2,-2l0,-91.333c0.000999,-1.105 -0.893997,-2 -1.999001,-2z"/>
  </g>
  <g id="svg_3"/>
  <g id="svg_4"/>
  <g id="svg_5"/>
  <g id="svg_6"/>
  <g id="svg_7"/>
  <g id="svg_8"/>
  <g id="svg_9"/>
  <g id="svg_10"/>
  <g id="svg_11"/>
  <g id="svg_12"/>
  <g id="svg_13"/>
  <g id="svg_14"/>
  <g id="svg_15"/>
  <g id="svg_16"/>
  <g id="svg_17"/>
 </g>
</svg>