<?xml version="1.0"?>
<svg width="93.802" height="93.802" xmlns="http://www.w3.org/2000/svg">

 <g>
  <title>background</title>
  <rect fill="none" id="canvas_background" height="402" width="582" y="-1" x="-1"/>
 </g>
 <g>
  <title>Layer 1</title>
  <g id="svg_1">
   <g id="svg_2">
    <polygon fill="#70c1b3" id="svg_3" points="46.746,93.802 54.7,77.1 39.102,77.123   "/>
    <path fill="#70c1b3" id="svg_4" d="m2.167,0l0,73.198997l89.468002,0l0,-73.198997l-89.468002,0zm83.657997,67.390999l-77.847997,0l0,-61.580999l77.847997,0l0,61.580999z"/>
    <path fill="#70c1b3" id="svg_5" d="m27.607,34.384998l-10.450001,10.874001l0,18.349003c0,0.515999 0.419001,0.935997 0.936001,0.935997l12.688,0c0.517,0 0.935999,-0.418999 0.935999,-0.935997l0,-28.147003l-2.925999,-1.076l-1.184,0z"/>
    <path fill="#70c1b3" id="svg_6" d="m53.450001,42.912998l-12.687,0c-0.518002,0 -0.937,0.419003 -0.937,0.936001l0,19.757999c0,0.517002 0.418999,0.937 0.937,0.937l12.687,0c0.516998,0 0.936001,-0.418999 0.936001,-0.937l0,-19.758999c0,-0.515999 -0.419003,-0.935001 -0.936001,-0.935001z"/>
    <path fill="#70c1b3" id="svg_7" d="m71.891998,22.785l-2.305,-1.926001l-8.338997,9.097l0,33.650999c0,0.516003 0.418999,0.936001 0.937,0.936001l12.688,0c0.516998,0 0.935997,-0.418999 0.935997,-0.936001l0,-40.511999c-0.051994,0.030001 -0.098999,0.067001 -0.152,0.094c-0.485001,0.254002 -1.029999,0.388 -1.577995,0.388c-0.801003,0.000999 -1.575005,-0.279999 -2.187004,-0.792z"/>
    <path fill="#70c1b3" id="svg_8" d="m14.057,43.856998c0.491,0 0.981999,-0.192997 1.349999,-0.574997l11.943001,-12.428001l20.897001,7.688999c0.713997,0.261002 1.511997,0.068001 2.026997,-0.492001l19.243,-20.990999l4.501999,3.764c0.221001,0.184 0.528,0.216002 0.782005,0.084002c0.252998,-0.133001 0.403,-0.404001 0.376999,-0.691002l-0.975998,-10.911999c-0.034004,-0.39 -0.379005,-0.677 -0.768005,-0.642l-10.912998,0.974c-0.285,0.025 -0.527,0.221 -0.612999,0.493999c-0.027,0.09 -0.035999,0.183001 -0.028,0.274c0.016998,0.184 0.104,0.358001 0.250999,0.48l4.511997,3.771l-18.278999,19.940001l-20.865999,-7.678001c-0.698999,-0.254999 -1.480999,-0.074999 -1.997,0.459002l-12.792999,13.310999c-0.716001,0.745998 -0.693,1.93 0.052999,2.646c0.362,0.348999 0.829,0.522999 1.296,0.522999z"/>
   </g>
  </g>
  <g id="svg_9"/>
  <g id="svg_10"/>
  <g id="svg_11"/>
  <g id="svg_12"/>
  <g id="svg_13"/>
  <g id="svg_14"/>
  <g id="svg_15"/>
  <g id="svg_16"/>
  <g id="svg_17"/>
  <g id="svg_18"/>
  <g id="svg_19"/>
  <g id="svg_20"/>
  <g id="svg_21"/>
  <g id="svg_22"/>
  <g id="svg_23"/>
 </g>
</svg>