<?xml version="1.0"?>
<svg width="32" height="32" xmlns="http://www.w3.org/2000/svg">

 <g>
  <title>background</title>
  <rect fill="none" id="canvas_background" height="402" width="582" y="-1" x="-1"/>
 </g>
 <g>
  <title>Layer 1</title>
  <g id="svg_1">
   <path fill="#ffffff" id="svg_2" d="m0,0l0,32l32,0l0,-32l-32,0zm23.754,12.022c0.007999,0.172 0.012001,0.344999 0.012001,0.519c0,5.285 -4.021,11.383001 -11.383001,11.383001c-2.26,0 -4.361,-0.66 -6.133,-1.797001c0.314,0.035 0.632,0.055 0.955,0.055c1.875,0 3.599,-0.639 4.968,-1.712c-1.75,-0.032 -3.228001,-1.188 -3.736,-2.776001c0.243999,0.047001 0.493999,0.070002 0.752,0.070002c0.365,0 0.719,-0.049002 1.054,-0.143002c-1.828,-0.366999 -3.209,-1.982999 -3.209,-3.921999c0,-0.017 0,-0.033 0,-0.05c0.541,0.3 1.157,0.479 1.813,0.5c-1.073,-0.717 -1.779,-1.942 -1.779,-3.332c0,-0.731 0.197,-1.42 0.542,-2.01c1.972,2.42 4.921,4.014999 8.244999,4.18c-0.066999,-0.293 -0.103999,-0.598001 -0.103999,-0.911c0,-2.209001 1.791,-4 4.001999,-4c1.147001,0 2.188,0.485 2.919001,1.264c0.91,-0.18 1.768,-0.514 2.541,-0.971c-0.300001,0.934999 -0.934,1.719 -1.759001,2.212999c0.810001,-0.097 1.58,-0.311999 2.297001,-0.629c-0.536999,0.802999 -1.215,1.505999 -1.997,2.068999z"/>
  </g>
  <g id="svg_3"/>
  <g id="svg_4"/>
  <g id="svg_5"/>
  <g id="svg_6"/>
  <g id="svg_7"/>
  <g id="svg_8"/>
  <g id="svg_9"/>
  <g id="svg_10"/>
  <g id="svg_11"/>
  <g id="svg_12"/>
  <g id="svg_13"/>
  <g id="svg_14"/>
  <g id="svg_15"/>
  <g id="svg_16"/>
  <g id="svg_17"/>
 </g>
</svg>